<svg width="674" height="682" viewBox="0 0 674 682" fill="none" xmlns="http://www.w3.org/2000/svg">
<rect width="674" height="682" rx="100" fill="#1A1A1B"/>
<g filter="url(#filter0_d_101_4)">
<path d="M201 92.5C201 65.1619 223.162 43 250.5 43V43C277.838 43 300 65.1619 300 92.5V588.5C300 615.838 277.838 638 250.5 638V638C223.162 638 201 615.838 201 588.5V92.5Z" fill="#F8F8F8"/>
<path d="M201 92.5C201 65.1619 223.162 43 250.5 43V43C277.838 43 300 65.1619 300 92.5V588.5C300 615.838 277.838 638 250.5 638V638C223.162 638 201 615.838 201 588.5V92.5Z" stroke="white"/>
</g>
<g filter="url(#filter1_d_101_4)">
<mask id="path-3-inside-1_101_4" fill="white">
<path d="M337 89.6785C337 63.8987 358.125 42.5075 383.337 47.8889C424.929 56.7665 463.443 77.4876 493.978 108.022C535.611 149.655 559 206.122 559 265C559 323.878 535.611 380.345 493.978 421.978C463.443 452.512 424.929 473.233 383.337 482.111C358.125 487.492 337 466.101 337 440.322C337 414.542 358.561 394.417 382.662 385.266C399.505 378.872 414.98 368.949 427.964 355.964C452.09 331.839 465.643 299.118 465.643 265C465.643 230.882 452.09 198.161 427.964 174.036C414.979 161.051 399.505 151.128 382.662 144.734C358.561 135.583 337 115.458 337 89.6785Z"/>
</mask>
<path d="M337 89.6785C337 63.8987 358.125 42.5075 383.337 47.8889C424.929 56.7665 463.443 77.4876 493.978 108.022C535.611 149.655 559 206.122 559 265C559 323.878 535.611 380.345 493.978 421.978C463.443 452.512 424.929 473.233 383.337 482.111C358.125 487.492 337 466.101 337 440.322C337 414.542 358.561 394.417 382.662 385.266C399.505 378.872 414.98 368.949 427.964 355.964C452.09 331.839 465.643 299.118 465.643 265C465.643 230.882 452.09 198.161 427.964 174.036C414.979 161.051 399.505 151.128 382.662 144.734C358.561 135.583 337 115.458 337 89.6785Z" fill="#F8F8F8"/>
<path d="M337 89.6785C337 63.8987 358.125 42.5075 383.337 47.8889C424.929 56.7665 463.443 77.4876 493.978 108.022C535.611 149.655 559 206.122 559 265C559 323.878 535.611 380.345 493.978 421.978C463.443 452.512 424.929 473.233 383.337 482.111C358.125 487.492 337 466.101 337 440.322C337 414.542 358.561 394.417 382.662 385.266C399.505 378.872 414.98 368.949 427.964 355.964C452.09 331.839 465.643 299.118 465.643 265C465.643 230.882 452.09 198.161 427.964 174.036C414.979 161.051 399.505 151.128 382.662 144.734C358.561 135.583 337 115.458 337 89.6785Z" stroke="white" stroke-width="2" mask="url(#path-3-inside-1_101_4)"/>
</g>
<defs>
<filter id="filter0_d_101_4" x="196.5" y="42.5" width="108" height="604" filterUnits="userSpaceOnUse" color-interpolation-filters="sRGB">
<feFlood flood-opacity="0" result="BackgroundImageFix"/>
<feColorMatrix in="SourceAlpha" type="matrix" values="0 0 0 0 0 0 0 0 0 0 0 0 0 0 0 0 0 0 127 0" result="hardAlpha"/>
<feOffset dy="4"/>
<feGaussianBlur stdDeviation="2"/>
<feComposite in2="hardAlpha" operator="out"/>
<feColorMatrix type="matrix" values="0 0 0 0 0 0 0 0 0 0 0 0 0 0 0 0 0 0 0.25 0"/>
<feBlend mode="normal" in2="BackgroundImageFix" result="effect1_dropShadow_101_4"/>
<feBlend mode="normal" in="SourceGraphic" in2="effect1_dropShadow_101_4" result="shape"/>
</filter>
<filter id="filter1_d_101_4" x="333" y="47.0533" width="230" height="443.893" filterUnits="userSpaceOnUse" color-interpolation-filters="sRGB">
<feFlood flood-opacity="0" result="BackgroundImageFix"/>
<feColorMatrix in="SourceAlpha" type="matrix" values="0 0 0 0 0 0 0 0 0 0 0 0 0 0 0 0 0 0 127 0" result="hardAlpha"/>
<feOffset dy="4"/>
<feGaussianBlur stdDeviation="2"/>
<feComposite in2="hardAlpha" operator="out"/>
<feColorMatrix type="matrix" values="0 0 0 0 0 0 0 0 0 0 0 0 0 0 0 0 0 0 0.25 0"/>
<feBlend mode="normal" in2="BackgroundImageFix" result="effect1_dropShadow_101_4"/>
<feBlend mode="normal" in="SourceGraphic" in2="effect1_dropShadow_101_4" result="shape"/>
</filter>
</defs>
</svg>
